<svg xmlns="http://www.w3.org/2000/svg" xmlns:xlink="http://www.w3.org/1999/xlink" width="200" zoomAndPan="magnify" viewBox="0 0 150 37.5" height="50" preserveAspectRatio="xMidYMid meet" version="1.0"><defs><g/><clipPath id="3896697a84"><path d="M 127 9.792969 L 138 9.792969 L 138 22 L 127 22 Z M 127 9.792969 " clip-rule="nonzero"/></clipPath><clipPath id="5ad684cf0b"><path d="M 117.871094 19 L 146.738281 19 L 146.738281 28.296875 L 117.871094 28.296875 Z M 117.871094 19 " clip-rule="nonzero"/></clipPath></defs><g fill="#000000" fill-opacity="1"><g transform="translate(2.425734, 28.116464)"><g><path d="M 8.953125 0 L 5.25 0 L 5.25 -14.421875 L 0.484375 -14.421875 L 0.484375 -17.515625 L 13.71875 -17.515625 L 13.71875 -14.421875 L 8.953125 -14.421875 Z M 8.953125 0 "/></g></g></g><g fill="#000000" fill-opacity="1"><g transform="translate(18.813883, 28.116464)"><g><path d="M 12.921875 0 L 11.65625 -4.171875 L 5.265625 -4.171875 L 4 0 L 0 0 L 6.1875 -17.578125 L 10.71875 -17.578125 L 16.921875 0 Z M 10.765625 -7.28125 L 9.5 -11.359375 C 9.414062 -11.628906 9.304688 -11.976562 9.171875 -12.40625 C 9.046875 -12.832031 8.914062 -13.265625 8.78125 -13.703125 C 8.65625 -14.148438 8.550781 -14.535156 8.46875 -14.859375 C 8.382812 -14.535156 8.269531 -14.128906 8.125 -13.640625 C 7.988281 -13.160156 7.859375 -12.703125 7.734375 -12.265625 C 7.609375 -11.835938 7.519531 -11.535156 7.46875 -11.359375 L 6.203125 -7.28125 Z M 10.765625 -7.28125 "/></g></g></g><g fill="#000000" fill-opacity="1"><g transform="translate(37.920765, 28.116464)"><g><path d="M 9.625 0 L 5.40625 -13.734375 L 5.296875 -13.734375 C 5.304688 -13.410156 5.328125 -12.914062 5.359375 -12.25 C 5.398438 -11.59375 5.4375 -10.894531 5.46875 -10.15625 C 5.5 -9.414062 5.515625 -8.742188 5.515625 -8.140625 L 5.515625 0 L 2.203125 0 L 2.203125 -17.515625 L 7.265625 -17.515625 L 11.40625 -4.125 L 11.46875 -4.125 L 15.875 -17.515625 L 20.921875 -17.515625 L 20.921875 0 L 17.46875 0 L 17.46875 -8.28125 C 17.46875 -8.832031 17.476562 -9.46875 17.5 -10.1875 C 17.519531 -10.90625 17.546875 -11.585938 17.578125 -12.234375 C 17.609375 -12.890625 17.628906 -13.382812 17.640625 -13.71875 L 17.53125 -13.71875 L 13.015625 0 Z M 9.625 0 "/></g></g></g><g fill="#ed0a0a" fill-opacity="1"><g transform="translate(63.232166, 28.116464)"><g><path d="M 7.796875 -17.515625 C 10.054688 -17.515625 11.703125 -17.023438 12.734375 -16.046875 C 13.773438 -15.078125 14.296875 -13.742188 14.296875 -12.046875 C 14.296875 -11.285156 14.179688 -10.550781 13.953125 -9.84375 C 13.722656 -9.144531 13.34375 -8.523438 12.8125 -7.984375 C 12.289062 -7.441406 11.59375 -7.015625 10.71875 -6.703125 C 9.851562 -6.390625 8.785156 -6.234375 7.515625 -6.234375 L 5.921875 -6.234375 L 5.921875 0 L 2.203125 0 L 2.203125 -17.515625 Z M 7.609375 -14.46875 L 5.921875 -14.46875 L 5.921875 -9.265625 L 7.140625 -9.265625 C 7.835938 -9.265625 8.441406 -9.359375 8.953125 -9.546875 C 9.460938 -9.734375 9.851562 -10.019531 10.125 -10.40625 C 10.40625 -10.800781 10.546875 -11.304688 10.546875 -11.921875 C 10.546875 -12.785156 10.304688 -13.425781 9.828125 -13.84375 C 9.347656 -14.257812 8.609375 -14.46875 7.609375 -14.46875 Z M 7.609375 -14.46875 "/></g></g></g><g fill="#ed0a0a" fill-opacity="1"><g transform="translate(80.817992, 28.116464)"><g><path d="M 16.734375 -8.921875 C 16.734375 -6.953125 16.351562 -5.304688 15.59375 -3.984375 C 14.84375 -2.660156 13.753906 -1.664062 12.328125 -1 C 10.898438 -0.332031 9.175781 0 7.15625 0 L 2.203125 0 L 2.203125 -17.515625 L 7.703125 -17.515625 C 9.535156 -17.515625 11.125 -17.1875 12.46875 -16.53125 C 13.820312 -15.882812 14.867188 -14.921875 15.609375 -13.640625 C 16.359375 -12.367188 16.734375 -10.796875 16.734375 -8.921875 Z M 12.875 -8.828125 C 12.875 -10.117188 12.679688 -11.179688 12.296875 -12.015625 C 11.921875 -12.847656 11.363281 -13.460938 10.625 -13.859375 C 9.882812 -14.265625 8.972656 -14.46875 7.890625 -14.46875 L 5.921875 -14.46875 L 5.921875 -3.0625 L 7.515625 -3.0625 C 9.328125 -3.0625 10.671875 -3.546875 11.546875 -4.515625 C 12.429688 -5.484375 12.875 -6.921875 12.875 -8.828125 Z M 12.875 -8.828125 "/></g></g></g><g fill="#ed0a0a" fill-opacity="1"><g transform="translate(101.158475, 28.116464)"><g><path d="M 5.859375 0 L 2.203125 0 L 2.203125 -17.515625 L 12.234375 -17.515625 L 12.234375 -14.46875 L 5.859375 -14.46875 L 5.859375 -9.953125 L 11.796875 -9.953125 L 11.796875 -6.921875 L 5.859375 -6.921875 Z M 5.859375 0 "/></g></g></g><g clip-path="url(#3896697a84)"><path fill="#000000" d="M 136.65625 16.152344 L 134.582031 16.152344 L 134.417969 11.851562 C 134.375 10.726562 133.453125 9.839844 132.328125 9.839844 C 131.203125 9.839844 130.277344 10.726562 130.238281 11.851562 L 130.074219 16.152344 L 128 16.152344 C 127.609375 16.152344 127.417969 16.625 127.691406 16.898438 L 132.019531 21.226562 C 132.191406 21.398438 132.464844 21.398438 132.636719 21.226562 L 136.964844 16.898438 C 137.238281 16.625 137.042969 16.152344 136.65625 16.152344 " fill-opacity="1" fill-rule="nonzero"/></g><g clip-path="url(#5ad684cf0b)"><path fill="#000000" d="M 142.171875 21.703125 L 142.171875 23.652344 L 122.484375 23.652344 L 122.484375 21.703125 C 122.484375 20.429688 121.449219 19.398438 120.179688 19.398438 C 118.90625 19.398438 117.871094 20.429688 117.871094 21.703125 L 117.871094 28.261719 L 146.785156 28.261719 L 146.785156 21.703125 C 146.785156 20.429688 145.75 19.398438 144.480469 19.398438 C 143.207031 19.398438 142.171875 20.429688 142.171875 21.703125 " fill-opacity="1" fill-rule="nonzero"/></g></svg>
